PathFileType	3	(X/Y/Z)	F:\ViconData\AntennenMessung\Messung1\Session1\ID24.trc
DataRate	CameraRate	NumFrames	NumMarkers	Units	OrigDataRate	OrigDataStartFrame	OrigNumFrames
120.0	120.0	4	70	mm	120.0	788	1260	
Frame#	Time	Ashort			Along			Atop			A4			Bshort			Blong			Btop			B4			Cshort			Clong			Ctop			C4			Dshort			Dlong			Dtop			D4			Eshort			Elong			Etop			E4			Fshort			Flong			Ftop			F4			Gshort			Glong			Gtop			G4			Hshort			Hlong			Htop			H4			I1			I2			I3			I4			I5			WandAshort			WandAlong			WandAtop			WandA4			WandA15			WandBshort			WandB4			WandB5			WandBtop			WandBlong			WandCshort			WandClong			WandCtop			WandC4			WandC5			Acenter			Aantenna			Bcenter			Bantenna			Ccenter			Cantenna			Dcenter			Dantenna			Ecenter			Eantenna			Fcenter			Fantenna			Gcenter			Gantenna			Hcenter			Hantenna			Icenter			Iantenna			
		X1	Y1	Z1	X2	Y2	Z2	X3	Y3	Z3	X4	Y4	Z4	X5	Y5	Z5	X6	Y6	Z6	X7	Y7	Z7	X8	Y8	Z8	X9	Y9	Z9	X10	Y10	Z10	X11	Y11	Z11	X12	Y12	Z12	X13	Y13	Z13	X14	Y14	Z14	X15	Y15	Z15	X16	Y16	Z16	X17	Y17	Z17	X18	Y18	Z18	X19	Y19	Z19	X20	Y20	Z20	X21	Y21	Z21	X22	Y22	Z22	X23	Y23	Z23	X24	Y24	Z24	X25	Y25	Z25	X26	Y26	Z26	X27	Y27	Z27	X28	Y28	Z28	X29	Y29	Z29	X30	Y30	Z30	X31	Y31	Z31	X32	Y32	Z32	X33	Y33	Z33	X34	Y34	Z34	X35	Y35	Z35	X36	Y36	Z36	X37	Y37	Z37	X38	Y38	Z38	X39	Y39	Z39	X40	Y40	Z40	X41	Y41	Z41	X42	Y42	Z42	X43	Y43	Z43	X44	Y44	Z44	X45	Y45	Z45	X46	Y46	Z46	X47	Y47	Z47	X48	Y48	Z48	X49	Y49	Z49	X50	Y50	Z50	X51	Y51	Z51	X52	Y52	Z52	X53	Y53	Z53	X54	Y54	Z54	X55	Y55	Z55	X56	Y56	Z56	X57	Y57	Z57	X58	Y58	Z58	X59	Y59	Z59	X60	Y60	Z60	X61	Y61	Z61	X62	Y62	Z62	X63	Y63	Z63	X64	Y64	Z64	X65	Y65	Z65	X66	Y66	Z66	X67	Y67	Z67	X68	Y68	Z68	X69	Y69	Z69	X70	Y70	Z70	
788	6.5583333	-1038.2122	214.52731	-1644.03	-1109.4277	204.30754	-1599.2845	-1064.2891	172.9783	-1625.0114	-1054.1458	262.31375	-1634.8718	-1352.6301	235.25906	1003.4551	-1281.4039	227.14824	1052.4445	-1322.6886	193.75772	1021.0209	-1284.288	287.98352	1052.593	814.12531	187.60928	1209.5131	892.1438	178.75246	1179.0885	844.43994	145.52274	1198.3527	861.00275	292.57382	1168.5259	1115.7815	209.96199	-1401.7389	1056.2115	194.1546	-1460.2697	1094.6758	162.15323	-1423.9398	1069.6998	239.41525	-1426.1946	-1204.7075	1686.0631	-1562.8193	-1129.1613	1688.3265	-1605.8805	-1173.1705	1724.3059	-1581.8354	-1134.0212	1581.0016	-1603.8734	-1239.575	1699.1355	1119.5959	-1309.3469	1698.8315	1072.0159	-1270.4558	1736.3818	1096.9911	-1245.6051	1592.7921	1110.7217	988.94171	1664.2349	1162.1809	957.75775	1700.2317	1183.9851	922.35748	1662.2112	1214.9894	939.8183	1659.4711	1159.8406	999.02142	1668.4598	-1579.4022	1058.9031	1670.1868	-1518.6141	1024.9517	1708.0787	-1551.0968	1059.2469	1672.1783	-1585.412	-180.53094	1639.158	-226.19337	-266.38464	1637.8331	-229.17	-219.22125	1675.3174	-228.89717	-217.32489	1636.5394	-259.34991	-220.61316	1640.9445	-180.23792																																														-1069.2917	210.06723	-1624.5023	-1074.5045	248.71365	-1623.9719	-1321.171	231.67668	1025.0927	-1319.6205	270.42313	1029.2533	847.98438	183.76552	1196.3091	851.57855	222.54422	1194.2368	1088.4679	202.71411	-1428.5759	1082.605	241.02147	-1432.9546	-1171.8805	1687.0465	-1581.5305	-1170.531	1648.0712	-1581.2117	-1271.0643	1698.9982	1098.1221	-1271.6987	1660.0214	1099.3016	953.08264	1705.6283	1187.254	973.05859	1733.856	1169.2219	1026.4943	1669.2521	-1551.5134	1028.0426	1630.285	-1551.9316	-218.70198	1638.5688	-227.51678	-218.15134	1599.6002	-226.05301
789	6.5666667	-1038.1992	214.54462	-1644.0396	-1109.4298	204.37622	-1599.3291	-1064.3617	172.95537	-1624.9919	-1054.1588	262.34436	-1634.8718	-1352.6838	235.19276	1003.5129	-1281.391	227.18784	1052.3542	-1322.578	193.86925	1020.996	-1284.4371	288.00372	1052.7272	814.08929	187.63857	1209.4316	892.12341	178.70132	1179.0768	844.41467	145.50462	1198.4529	860.99915	292.61877	1168.454	1115.7867	209.96031	-1401.7593	1056.2206	194.12949	-1460.2712	1094.62	162.03749	-1423.8866	1069.6918	239.40086	-1426.1981	-1204.6897	1686.0581	-1562.8264	-1129.1549	1688.3354	-1605.9041	-1173.1982	1724.2428	-1581.7548	-1134.0194	1581.0045	-1603.8589	-1239.5967	1699.1703	1119.5996	-1309.3092	1698.7711	1071.9911	-1270.4272	1736.3295	1096.9711	-1245.621	1592.8522	1110.7433	988.90302	1664.2079	1162.2026	957.66095	1700.2742	1183.9618	922.9361	1661.9653	1215.1381	939.83728	1659.4839	1159.7837	999.01917	1668.4656	-1579.4169	1058.8933	1670.1764	-1518.6208	1024.9424	1708.0791	-1551.0897	1059.2496	1672.1726	-1585.4122	-180.52499	1639.1604	-226.18604	-266.28949	1637.7397	-229.18507	-219.23422	1675.3568	-228.88403	-217.29599	1636.5333	-259.3638	-220.62938	1640.9381	-180.25635																																														-1069.3477	210.09805	-1624.488	-1074.536	248.74785	-1623.9636	-1321.1554	231.65268	1025.1122	-1319.6969	270.39615	1029.3331	847.94403	183.76117	1196.2622	851.521	222.53328	1194.0424	1088.4531	202.69589	-1428.6089	1082.6429	241.00314	-1433.0582	-1171.9349	1687.0455	-1581.5063	-1170.6115	1648.0688	-1581.2461	-1271.0142	1698.9902	1098.1437	-1271.6271	1660.0143	1099.3678	953.32629	1705.2782	1186.9806	973.10077	1733.4613	1168.6589	1026.4908	1669.2505	-1551.5221	1028.0447	1630.2838	-1551.9561	-218.67194	1638.5284	-227.51996	-218.07697	1599.5597	-226.07661
790	6.575	-1038.1956	214.47398	-1643.9941	-1109.4592	204.33229	-1599.2592	-1064.0443	172.58881	-1625.3606	-1054.165	262.34735	-1634.9049	-1352.557	235.26842	1003.4765	-1281.3285	227.31245	1052.3462	-1322.7002	193.75282	1021.0378	-1284.4315	287.93448	1052.7601	814.0849	187.66986	1209.3851	892.25031	178.82094	1179.0311	844.42517	145.53864	1198.3805	860.94342	292.56894	1168.5542	1115.776	209.95071	-1401.7544	1056.2561	194.14511	-1460.3419	1094.73	161.97116	-1423.8571	1069.7119	239.40797	-1426.1659	-1204.7042	1686.0551	-1562.8032	-1129.1473	1688.3215	-1605.9064	-1173.174	1724.2974	-1581.8287	-1134.0149	1581.015	-1603.8702	-1239.5728	1699.1295	1119.5892	-1309.3157	1698.7627	1071.9935	-1270.4583	1736.3815	1096.9883	-1244.9255	1593.6665	1106.3142	988.90308	1664.1859	1162.1761	957.61304	1700.2897	1183.8466	922.20374	1662.1313	1215.0898	939.80634	1659.4561	1159.8344	999.01801	1668.4629	-1579.4042	1058.7717	1670.0013	-1518.6279	1024.9553	1708.0865	-1551.0969	1059.2637	1672.1724	-1585.4109	-180.5349	1639.1501	-226.18405	-266.41299	1637.8536	-229.16879	-219.26038	1675.3667	-228.87682	-217.33504	1636.526	-259.34763	-220.51016	1640.9358	-180.28323																																														-1068.9572	210.09621	-1624.6837	-1074.0216	248.7597	-1623.9861	-1321.1771	231.7634	1025.0062	-1319.6241	270.52182	1029.0525	847.93048	183.83824	1196.2418	851.47968	222.61603	1194.0765	1088.5411	202.71848	-1428.5624	1082.7227	241.02744	-1432.9862	-1171.8837	1687.0396	-1581.5262	-1170.5342	1648.0641	-1581.2101	-1271.0331	1698.9639	1098.1191	-1271.6321	1659.9863	1099.2971	952.98175	1705.6334	1187.0541	972.91644	1733.8092	1168.8956	1026.4106	1669.1681	-1551.5426	1027.8682	1630.1979	-1551.989	-218.75232	1638.573	-227.51231	-218.21423	1599.6035	-226.06714
791	6.5833333	-1038.189	214.44821	-1643.9877	-1109.4281	204.29704	-1599.2817	-1064.01	172.57103	-1625.3939	-1054.1625	262.32123	-1634.8522	-1352.7476	235.04572	1003.4352	-1281.4845	227.10683	1052.4423	-1322.6908	193.71574	1021.0499	-1284.375	287.96695	1052.6602	814.03503	187.65823	1209.5013	892.29749	178.6181	1179.1432	844.37469	145.60449	1198.2904	860.93268	292.57156	1168.4572	1115.7354	209.66859	-1401.5891	1056.2374	194.1687	-1460.2361	1094.7485	162.12627	-1423.9646	1069.6777	239.3728	-1426.1857	-1204.7126	1686.076	-1562.8226	-1129.1622	1688.3287	-1605.8864	-1173.171	1724.2953	-1581.819	-1134.0323	1581.0338	-1603.8434	-1239.5466	1699.1021	1119.5806	-1309.312	1698.7877	1072.0055	-1270.3755	1736.2603	1096.9512	-1244.8777	1593.7493	1106.2651	988.91833	1664.2235	1162.2018	957.70514	1700.2666	1183.8914	922.31732	1662.1343	1215.1151	939.79675	1659.4418	1159.8427	999.0061	1668.4619	-1579.4204	1058.7708	1669.9977	-1518.6348	1024.9508	1708.0753	-1551.087	1059.2539	1672.1846	-1585.4094	-180.53139	1639.1477	-226.19437	-266.48843	1637.9213	-229.16826	-219.25604	1675.3834	-228.87659	-217.31409	1636.5229	-259.3425	-220.54939	1640.9462	-180.28157																																														-1068.9196	210.06926	-1624.7025	-1073.9817	248.73276	-1623.99	-1321.2566	231.53754	1025.0912	-1319.7871	270.28925	1029.2319	848.01489	183.7332	1196.3206	851.71649	222.50543	1194.3175	1088.5577	202.5885	-1428.3779	1082.6935	240.91776	-1432.5587	-1171.895	1687.0544	-1581.5284	-1170.5597	1648.0785	-1581.2246	-1271.0085	1698.9602	1098.1257	-1271.6699	1659.9851	1099.353	953.07056	1705.6182	1187.1118	973.00275	1733.8014	1168.9622	1026.4149	1669.1661	-1551.5433	1027.8812	1630.1963	-1552.0005	-218.7782	1638.6019	-227.51761	-218.27193	1599.6318	-226.07774
